<svg xmlns="http://www.w3.org/2000/svg" xmlns:xlink="http://www.w3.org/1999/xlink" viewBox="0 0 156.85 57.33"><defs><style>.a,.b{fill:#80807e;}.b,.c{fill-rule:evenodd;}.c{fill:#c8102e;}</style><symbol id="a" viewBox="0 0 174.39 63.74"><path class="a" d="M38.37,60.37V54.23c0-1.27-.11-2.47-1.42-3.13a3.71,3.71,0,0,0-1.73-.39,3.3,3.3,0,0,0-2.67,1.11,2.28,2.28,0,0,0-.3.44v-4.9H31.07v13h1.18V55a4.45,4.45,0,0,1,.21-1.51A2.74,2.74,0,0,1,34,52a3.11,3.11,0,0,1,1-.19,1.92,1.92,0,0,1,2,1.31,8.11,8.11,0,0,1,.14,2v5.31Z"/><path class="b" d="M49.89,55.84A6.15,6.15,0,0,0,49,52.19a3.65,3.65,0,0,0-3.09-1.5,4,4,0,0,0-2.51.82,5.25,5.25,0,0,0-1.73,4.24,5.2,5.2,0,0,0,.94,3.31,3.89,3.89,0,0,0,3.2,1.55,4.08,4.08,0,0,0,3.58-2,5.63,5.63,0,0,0,.53-1.22H48.71a3.47,3.47,0,0,1-.48,1,3,3,0,0,1-4,.6,3.35,3.35,0,0,1-1.35-2.63c0-.19,0-.39,0-.57Zm-7-.94a4.07,4.07,0,0,1,.9-2.2,2.8,2.8,0,0,1,2.12-1,2.7,2.7,0,0,1,2.58,1.78,5,5,0,0,1,.26,1.39Z"/><path class="b" d="M55.56,55a4.49,4.49,0,0,0-2.46,1,2.79,2.79,0,0,0-.72,2c0,1.07.54,2.65,3,2.65a3.79,3.79,0,0,0,3.17-1.29,3.87,3.87,0,0,0,.35-.55,5.14,5.14,0,0,0-.06.55c0,.87.57,1.2,1.37,1.22a2.13,2.13,0,0,0,.83-.17v-.9a1.14,1.14,0,0,1-.51.13.5.5,0,0,1-.48-.24,2,2,0,0,1-.08-.91V53.81a3.6,3.6,0,0,0-.16-1.44c-.31-.86-1.27-1.68-3.28-1.68-2.21,0-3.17.93-3.56,1.88a3.52,3.52,0,0,0-.22,1.24H54a2.63,2.63,0,0,1,.08-.68,1.57,1.57,0,0,1,.42-.74,2.45,2.45,0,0,1,2-.66c1.32,0,2,.42,2.26,1.07a2.65,2.65,0,0,1,.11.86v.19c0,.33,0,.51-.18.62a4,4,0,0,1-1,.24L55.56,55Zm3.35.43v.81a4,4,0,0,1-.22,1.46,3.14,3.14,0,0,1-3.06,1.91,2.22,2.22,0,0,1-1.48-.49,1.72,1.72,0,0,1-.53-1.28,1.78,1.78,0,0,1,.22-.9,2.6,2.6,0,0,1,2-1l3.1-.51Z"/><path class="a" d="M65.28,60.37V56.15c0-1.29,0-2.71,1.12-3.61A2.83,2.83,0,0,1,68.3,52V50.82l-.4,0a2.65,2.65,0,0,0-2.18,1,2.4,2.4,0,0,0-.53,1.11l0-2H64.14v9.44Z"/><path class="b" d="M72.35,60.37V50.93h-1.2v9.44Zm0-11.48V47.3H71.17v1.59Z"/><path class="a" d="M83.59,60.37V54.62c0-1.29,0-2.65-1.23-3.45a3.78,3.78,0,0,0-1.94-.46,3.11,3.11,0,0,0-2.69,1.2,3.86,3.86,0,0,0-.3.57V50.93H76.31v9.44h1.2V55.23A3.46,3.46,0,0,1,78,52.92a2.76,2.76,0,0,1,2.32-1.19,2,2,0,0,1,1.88,1.07,3.77,3.77,0,0,1,.22,1.69v5.88Z"/><path class="b" d="M94.18,59.38a3.75,3.75,0,0,1-.66,2.47,3.3,3.3,0,0,1-2.38.86,3,3,0,0,1-2.06-.62,1.35,1.35,0,0,1-.43-.87H87.42a2.51,2.51,0,0,0,.24.87c.4.81,1.4,1.66,3.39,1.66a4.19,4.19,0,0,0,3.35-1.28,4.83,4.83,0,0,0,.87-3.26V50.93h-1v1.53a2.84,2.84,0,0,0-.42-.68,3.57,3.57,0,0,0-2.69-1.09,4.16,4.16,0,0,0-1.59.28,3.76,3.76,0,0,0-1.36,1,5.35,5.35,0,0,0-1.28,3.57C86.88,58,88.3,60.3,91,60.3a3.86,3.86,0,0,0,2.66-1,3.28,3.28,0,0,0,.51-.67v.78Zm0-3.87a4.5,4.5,0,0,1-.6,2.54,3.05,3.05,0,0,1-2.42,1.23,2.94,2.94,0,0,1-1.68-.53,3.92,3.92,0,0,1-1.36-3.24A3.73,3.73,0,0,1,89.7,52.1a2.91,2.91,0,0,1,4.35,2,5.69,5.69,0,0,1,.13,1.42Z"/><path class="a" d="M109.1,56.26c.77.2,1.8.46,1.8,1.49a1.74,1.74,0,0,1-.27.89,2.22,2.22,0,0,1-2,.9,2.6,2.6,0,0,1-2.54-1.25,3.48,3.48,0,0,1-.19-1h-1.21a3,3,0,0,0,2,3,5.29,5.29,0,0,0,1.76.27c2.87,0,3.68-1.71,3.7-3a2.18,2.18,0,0,0-1.66-2.14c-.22-.08-.42-.13-.64-.19L108,54.84c-.87-.2-1.31-.37-1.59-.74a1.36,1.36,0,0,1-.22-.75c0-.83.61-1.57,2.19-1.57,1.33,0,1.92.48,2.21,1a3,3,0,0,1,.23.83H112a3.47,3.47,0,0,0-.32-1.31,3.29,3.29,0,0,0-3.24-1.64c-2.16,0-3.08,1-3.36,2a2.9,2.9,0,0,0-.09.79,2.22,2.22,0,0,0,.57,1.58,3.82,3.82,0,0,0,1.88.83l1.7.39Z"/><path class="a" d="M114.94,63.6a2.4,2.4,0,0,0,.78.11,2.17,2.17,0,0,0,2.15-1.42c.13-.28.24-.57.35-.85l4.13-10.51h-1.22l-2.47,6.5a5.79,5.79,0,0,0-.49,1.88,10.53,10.53,0,0,0-.76-2.63l-2.16-5.75H114l3.59,9.15-.33.88c-.44,1.2-.81,1.66-1.57,1.66a6.52,6.52,0,0,1-.68-.07l0,1.05Z"/><path class="a" d="M128.56,56.26c.78.2,1.81.46,1.81,1.49a1.63,1.63,0,0,1-.28.89,2.21,2.21,0,0,1-2,.9,2.62,2.62,0,0,1-2.55-1.25,3.14,3.14,0,0,1-.18-1h-1.22a3,3,0,0,0,2,3,5.24,5.24,0,0,0,1.75.27c2.88,0,3.69-1.71,3.71-3a2.18,2.18,0,0,0-1.66-2.14c-.22-.08-.43-.13-.65-.19l-1.86-.44c-.87-.2-1.31-.37-1.59-.74a1.36,1.36,0,0,1-.22-.75c0-.83.61-1.57,2.2-1.57a2.2,2.2,0,0,1,2.21,1,2.87,2.87,0,0,1,.22.83h1.18a3.61,3.61,0,0,0-.31-1.31c-.39-.79-1.31-1.64-3.25-1.64-2.15,0-3.08,1-3.35,2a2.56,2.56,0,0,0-.09.79A2.22,2.22,0,0,0,125,55a3.78,3.78,0,0,0,1.88.83l1.69.39Z"/><path class="a" d="M134.68,58.51c0,1,0,1.4.52,1.73a1.55,1.55,0,0,0,1,.26,5.1,5.1,0,0,0,.88-.09,2.21,2.21,0,0,1,.3-.07V59.27a4.92,4.92,0,0,1-.87.13c-.66,0-.61-.56-.61-1.46l.09-6.1h1.48v-.91H136V48.17h-1.21v2.76h-1.35v.91h1.35l-.06,6.67Z"/><path class="b" d="M147.77,55.84a6.22,6.22,0,0,0-.88-3.65,3.67,3.67,0,0,0-3.1-1.5,4,4,0,0,0-2.51.82,5.25,5.25,0,0,0-1.73,4.24,5.2,5.2,0,0,0,.94,3.31,4.08,4.08,0,0,0,.81.8,3.91,3.91,0,0,0,2.4.75,4.1,4.1,0,0,0,3.58-2,5.63,5.63,0,0,0,.53-1.22h-1.22a3,3,0,0,1-.48,1,3,3,0,0,1-4,.6,3.29,3.29,0,0,1-1.35-2.63,5.66,5.66,0,0,1,0-.57Zm-7-.94a4.15,4.15,0,0,1,.9-2.2,2.8,2.8,0,0,1,2.12-1,2.72,2.72,0,0,1,2.59,1.78,4.86,4.86,0,0,1,.25,1.39Z"/><path class="a" d="M163.8,60.37V53.72a4.28,4.28,0,0,0-.18-1.37,2.6,2.6,0,0,0-1.9-1.54,4.24,4.24,0,0,0-1-.1,3.07,3.07,0,0,0-2.66,1.18,2.89,2.89,0,0,0-.31.57,2,2,0,0,0-.22-.51A2.67,2.67,0,0,0,155,50.71a3.23,3.23,0,0,0-2,.59,2.24,2.24,0,0,0-.8,1V50.93H151.1v9.44h1.18V55.76c0-1.19-.07-2.58,1-3.44a2.48,2.48,0,0,1,1.68-.56c1.9,0,1.9,1.57,1.92,2.18v6.43h1.18V55.63c0-1.14,0-2.71,1.07-3.44a2.72,2.72,0,0,1,1.47-.41,1.89,1.89,0,0,1,1.79.92,4.27,4.27,0,0,1,.22,1.9v5.77Z"/><path class="a" d="M171.34,56.26c.77.2,1.8.46,1.8,1.49a1.74,1.74,0,0,1-.27.89,2.22,2.22,0,0,1-2,.9,2.6,2.6,0,0,1-2.54-1.25,3.48,3.48,0,0,1-.19-1H166.9a3,3,0,0,0,2,3,5.21,5.21,0,0,0,1.75.27c2.87,0,3.68-1.71,3.7-3a2.18,2.18,0,0,0-1.66-2.14c-.22-.08-.42-.13-.64-.19l-1.86-.44c-.87-.2-1.31-.37-1.59-.74a1.36,1.36,0,0,1-.22-.75c0-.83.61-1.57,2.19-1.57,1.33,0,1.92.48,2.21,1a3,3,0,0,1,.23.83h1.18a3.47,3.47,0,0,0-.32-1.31c-.38-.79-1.31-1.64-3.24-1.64-2.16,0-3.08,1-3.36,2a2.9,2.9,0,0,0-.09.79,2.22,2.22,0,0,0,.57,1.58,3.82,3.82,0,0,0,1.88.83l1.7.39Z"/><path class="a" d="M26.78,38.25V23.94c0-7.55-5.14-12.46-13.23-12.46C5.14,11.48,0,17.38,0,24.86,0,32.57,5.35,38.8,12.9,38.8A10.7,10.7,0,0,0,20,36.29V30.6a8.49,8.49,0,0,1-6.61,3.61,8.65,8.65,0,0,1-8.58-9c0-5,3.33-9.18,8.63-9.18,4.37,0,8.53,2.51,8.53,7.43V38.25Z"/><path class="a" d="M48.74,12v15.3a6.41,6.41,0,1,1-12.79,0V12H31.14v15.3c0,6.89,4.81,11.48,11.2,11.48s11.21-4.59,11.21-11.48V12Z"/><path class="a" d="M79.12,0V23.5c0,7.21-3.82,10.71-8.41,10.71-5.14,0-8.74-3.77-8.74-9.13s3.44-9,8.63-9a13,13,0,0,1,6.61,2.29v-5a14.72,14.72,0,0,0-7.43-1.85,12.89,12.89,0,0,0-12.62,13c0,7.76,5,14.32,13.55,14.32,7.7,0,13.22-5.79,13.22-14.43V0Z"/><path class="b" d="M95.84,38.25V12H91V38.25ZM90.54,6.17a2.9,2.9,0,1,0,5.79,0,2.9,2.9,0,0,0-5.79,0Z"/><path class="a" d="M111.79,38.25V19.45h6.78v-8h-6.78c0-2.25.55-3.5,2.73-3.5h4V0h-4.81c-6.56,0-10.71,4.1-10.71,9.62V38.25Z"/><path class="c" d="M128.82,25a5.31,5.31,0,1,1,10.6,0,5.31,5.31,0,1,1-10.6,0Zm-8.41,0A13.72,13.72,0,1,0,134.12,11,14,14,0,0,0,120.41,25Z"/><path class="a" d="M160,38.25V23.06c0-2.3,1.14-3.72,3-3.72s3,1.42,3,3.72V38.25h8.41V23.06c0-6.89-4-12-11.42-12s-11.42,5.13-11.42,12V38.25Z"/></symbol></defs><title>logo</title><use width="174.39" height="63.75" transform="scale(0.9)" xlink:href="#a"/></svg>